<?xml version="1.0" encoding="UTF-8" standalone="no"?>
<svg width="512" height="512" viewBox="0 0 512 512" xmlns="http://www.w3.org/2000/svg" role="img" aria-labelledby="logoMarkTitle">
  <title id="logoMarkTitle">Llamora mark</title>
  <defs>
    <linearGradient id="inkBaseNeutral" x1="0" y1="0" x2="1" y2="1">
      <stop offset="0%" stop-color="#727272" stop-opacity="0.9"/>
      <stop offset="50%" stop-color="#5a5a5a" stop-opacity="0.95"/>
      <stop offset="100%" stop-color="#3a3a3a" stop-opacity="1"/>
    </linearGradient>

    <filter id="softLift" x="-20%" y="-20%" width="140%" height="140%">
      <feGaussianBlur in="SourceAlpha" stdDeviation="1.4" result="blur"/>
      <feColorMatrix in="blur" type="matrix"
        values="0 0 0 0 1
                0 0 0 0 1
                0 0 0 0 1
                0 0 0 0.12 0" result="glow"/>
      <feMerge>
        <feMergeNode in="glow"/>
        <feMergeNode in="SourceGraphic"/>
      </feMerge>
    </filter>
  </defs>

  <g filter="url(#softLift)">
    <g stroke="url(#inkBaseNeutral)" stroke-width="10" fill="none" stroke-linecap="round" opacity="0.92">
      <path d="M 276.00 256.00 A 20.00 20.00 0 1 1 271.32 243.14" />
      <path d="M 293.59 269.68 A 40.00 40.00 0 1 1 293.59 242.32" />
      <path d="M 301.96 294.57 A 60.00 60.00 0 1 1 316.00 256.00" />
      <path d="M 296.00 325.28 A 80.00 80.00 0 1 1 331.18 283.36" />
      <path d="M 273.36 354.48 A 100.00 100.00 0 1 1 332.60 320.28" />
      <path d="M 235.16 374.18 A 120.00 120.00 0 1 1 316.00 359.92" />
      <path d="M 186.00 377.24 A 140.00 140.00 0 1 1 280.31 393.87" />
      <path d="M 133.43 358.85 A 160.00 160.00 0 1 1 228.22 413.57" />
    </g>
  </g>
</svg>
